<?xml version="1.0" encoding="utf-8"?>
<!-- Generator: Adobe Illustrator 19.1.0, SVG Export Plug-In . SVG Version: 6.00 Build 0)  -->
<svg version="1.1" id="Layer_1" xmlns="http://www.w3.org/2000/svg" xmlns:xlink="http://www.w3.org/1999/xlink" x="0px" y="0px"
	 viewBox="0 0 536 94" style="enable-background:new 0 0 536 94;" xml:space="preserve">
<g>
	<g>
		<g style="opacity:0.5;">
			<path style="fill:#231F20;" d="M532.9,51c-2.5-6-8.4-9.9-18.8-10.4c-10.8-0.6-16.7,3.4-19.8,9.1c-2,3.5-3,8.4-3.3,14
				c-0.3,5.9,0.2,11.4,1.8,15.3c2.5,6.3,8.3,9.9,18.6,10.4c10.5,0.5,17-2.7,19.9-8.8c2.1-4.2,3.1-8.7,3.4-15
				C535,59.7,534.6,55.1,532.9,51z M521,65.5c-0.2,3.5-0.9,8.5-2.2,10.5c-1.1,1.6-2.9,2.8-6.7,2.6c-3.6-0.2-5.1-1.3-6.1-3.1
				c-1.3-1.9-1.4-7.2-1.2-10.9c0.2-3.5,1-8.5,2-10c1.4-2,2.9-3.2,6.8-3c4,0.2,5.4,1.7,6.5,3.6C521.1,57,521.2,62,521,65.5z"/>
		</g>
		<g style="opacity:0.5;">
			<path style="fill:#231F20;" d="M486.2,62.2c1-2.1,1.6-5,1.4-8.8c-0.2-4.5-1.3-7.7-3.2-10c-2.3-2.8-6.2-4.3-11.8-4l-25.8,1.4
				l2.4,47.5l13.3-0.7l-0.9-16.8l7.3-0.4l8.1,16.4l14.6-0.8l-10.3-19.2C483.3,66.1,485.1,64.7,486.2,62.2z M473.8,58.3
				c-0.4,1-1.7,1.5-3.1,1.6l-9.3,0.5c0-0.2-0.5-9.5-0.5-9.5l9-0.5c1.8-0.1,3,0.4,3.7,1.7c0.4,0.6,0.6,2,0.6,3.1
				C474.4,56.2,474.2,57.5,473.8,58.3z"/>
		</g>
	</g>
	<g>
		<path style="fill:#FFFFFF;stroke:#231F20;stroke-miterlimit:10;" d="M483.2,59.2c-1.2,2.5-3,3.9-4.8,4.5l10.3,19.2l-14.6,0.8
			l-8.1-16.4l-7.3,0.4l0.9,16.8l-13.3,0.7l-2.4-47.5l25.8-1.4c5.6-0.3,9.4,1.2,11.8,4c1.9,2.3,2.9,5.6,3.2,10
			C484.8,54.2,484.2,57.1,483.2,59.2z M470.7,49.2c-0.7-1.3-2-1.8-3.7-1.7l-9,0.5c0,0,0.5,9.2,0.5,9.5l9.3-0.5
			c1.4-0.1,2.7-0.6,3.1-1.6c0.4-0.8,0.5-2.1,0.5-3.1C471.3,51.1,471.1,49.8,470.7,49.2z"/>
		<path style="fill:#FFFFFF;stroke:#231F20;stroke-miterlimit:10;" d="M529.9,48c1.7,4.1,2.1,8.7,1.8,14.7c-0.3,6.3-1.3,10.7-3.4,15
			c-2.9,6.1-9.4,9.4-19.9,8.8c-10.3-0.5-16.2-4.1-18.6-10.4c-1.6-3.9-2.1-9.4-1.8-15.3c0.3-5.6,1.3-10.5,3.3-14
			c3.1-5.7,9-9.7,19.8-9.1C521.5,38.2,527.4,42,529.9,48z M515.8,73c1.3-2,2-7,2.2-10.5c0.2-3.5,0.1-8.5-0.9-10.3
			c-1.1-1.9-2.5-3.4-6.5-3.6c-3.9-0.2-5.4,1-6.8,3c-1,1.6-1.8,6.6-2,10c-0.2,3.7,0,9,1.2,10.9c1.1,1.7,2.5,2.9,6.1,3.1
			C513,75.8,514.7,74.6,515.8,73z"/>
	</g>
</g>
<g style="opacity:0.5;">
	<path style="fill:#231F20;" d="M391.4,7.9l-2,39.7l-19-40.8l-23.3-1.2l-3.4,67.1L320.9,7.9l-30.6,1.6l-12.9,49.8l-22-1.2
		c-0.3,3-0.8,6.2-2.5,9.1c-1.7,2.8-5.1,4.6-10.7,4.3c-4.5-0.2-8.3-1.7-10.4-5.5c-1.9-3.1-2.4-9.4-2-18.1c0.4-7,1.4-13.4,3.6-16.8
		c2.2-3.4,5.6-4.9,11-4.6c6.1,0.3,9,2.3,10.6,6.1c0.9,2.4,1.3,5.9,1.1,9l23.1,1.2c0.2-3.3,0.1-9.3-0.8-13.6
		c-2.2-11.9-11.4-20.9-32.7-22.1c-15.5-0.8-25.6,3.2-31.5,11.6c-2.6,3-4.7,7.4-6.1,12.7l-0.8-23.5l-22.1,0.8l1.4,39.7l-22.4-39
		L141,10.2l2.1,61.3L125.6,7.9L95,7.3L78.7,55.8c0,0,0,0,0,0l-23.1,1.7c0.1,3-0.1,6.3-1.4,9.3c-1.3,3-4.5,5.1-10.1,5.5
		c-4.5,0.3-8.4-0.6-11-4.1c-2.2-2.8-3.5-9-4.1-17.7c-0.5-7-0.2-13.4,1.5-17.2c1.8-3.6,5-5.6,10.4-6c6.1-0.4,9.2,1.2,11.2,4.7
		c1.2,2.3,2,5.7,2.2,8.8l23-1.6c-0.2-3.3-1-9.3-2.4-13.4C71.4,14.3,61.2,6.5,39.9,8c-15.4,1.1-25,6.4-29.9,15.4
		c-4.2,6.2-5.8,17.1-5,28.7c0.9,12.6,4,23.6,9.7,29.8c6,6.9,15.8,10.3,30.2,9.2c11.3-0.8,19.3-3.7,24.7-8.3L68,88l23.8,0.4l5.2-18
		l22.6,0.4l4.3,18.2l19.8,0.4l0.1,1.9l22-0.8l-1.4-40.5l23.3,39.7l22.6-0.8l-0.5-15.7c0.7,1.5,1.5,2.9,2.3,4.1
		c5.1,7.6,14.5,12.2,28.9,12.9c15.6,0.8,25.5-3.1,31.2-10.5l-3.2,12.1l23.8-1.3l4-18.4l22.6-1.2l5.5,17.9l24.1-1.3l-0.3-0.8
		l16.3,0.9l2.1-40.4l19.8,41.6l22.6,1.2L413.5,9L391.4,7.9z M102,54.1c0-0.2,5.8-20.4,5.9-20.7c0.6-1.7,1.7-8.8,1.7-8.8
		s0.8,7,1.3,8.6c0.1,0.3,4.7,20.9,4.7,21.1L102,54.1z M300.6,55.7c0-0.2,4.4-20.8,4.4-21.1c0.5-1.8,1.1-8.9,1.1-8.9s1.3,6.9,1.8,8.5
		c0.1,0.3,6.1,20.5,6.1,20.7L300.6,55.7z"/>
</g>
<g>
	<path style="fill:#FFFFFF;stroke:#231F20;stroke-miterlimit:10;" d="M182.6,86l-23.3-39.7l1.4,40.5l-22,0.8L136,6.4l23.3-0.8
		l22.4,39l-1.4-39.7L202.4,4l2.8,81.1L182.6,86z"/>
	<path style="fill:#FFFFFF;stroke:#231F20;stroke-miterlimit:10;" d="M86.8,84.7L63,84.2L90,3.5l30.6,0.5L143,85.7l-24.1-0.4
		L114.6,67L92,66.6L86.8,84.7z M104.5,20.8c0,0-7.5,29.3-7.5,29.5l13.5,0.2C110.5,50.3,104.5,20.8,104.5,20.8z"/>
	<path style="fill:#FFFFFF;stroke:#231F20;stroke-miterlimit:10;" d="M72.4,66.7C69.1,78.4,59.4,86,40,87.4
		c-14.4,1-24.2-2.4-30.2-9.2C4.1,72,0.9,60.9,0.1,48.3c-0.8-11.7,0.8-22.6,5-28.7c4.8-9,14.4-14.3,29.9-15.4
		C56.2,2.7,66.4,10.5,70,22.1c1.4,4.1,2.2,10.1,2.4,13.4l-23,1.6c-0.2-3.1-1-6.5-2.2-8.8c-2-3.6-5.1-5.2-11.2-4.7
		c-5.4,0.4-8.6,2.4-10.4,6c-1.8,3.7-2,10.2-1.5,17.2c0.6,8.7,1.9,14.9,4.1,17.7c2.6,3.5,6.4,4.5,11,4.1c5.6-0.4,8.8-2.6,10.1-5.5
		c1.3-3.1,1.5-6.4,1.4-9.3L73.7,52C73.9,55.2,74,62.2,72.4,66.7z"/>
	<path style="fill:#FFFFFF;stroke:#231F20;stroke-miterlimit:10;" d="M274.3,39c0.2-3.3,0.1-9.3-0.8-13.6
		c-2.2-11.9-11.4-20.9-32.7-22.1c-15.5-0.8-25.6,3.2-31.5,11.6c-4.9,5.6-7.8,16.2-8.4,27.9c-0.6,12.6,1.2,24,6.1,30.8
		c5.1,7.6,14.5,12.2,28.9,12.9c19.5,1,29.9-5.3,34.6-16.5c2.1-4.3,2.8-11.2,3.1-14.4l-23.2-1.2c-0.3,3-0.8,6.2-2.5,9.1
		c-1.7,2.8-5.1,4.6-10.7,4.3c-4.5-0.2-8.3-1.7-10.4-5.5c-1.9-3.1-2.4-9.4-2-18.1c0.4-7,1.4-13.4,3.6-16.8c2.2-3.4,5.6-4.9,11-4.6
		c6.1,0.3,9,2.3,10.6,6.1c0.9,2.4,1.3,5.9,1.1,9L274.3,39z"/>
	<polygon style="fill:#FFFFFF;stroke:#231F20;stroke-miterlimit:10;" points="386.4,4.1 384.4,43.8 365.3,2.9 342.1,1.7 337.9,82.7 
		359.9,83.9 362,43.5 381.7,85.1 404.3,86.3 408.5,5.2 	"/>
	<path style="fill:#FFFFFF;stroke:#231F20;stroke-miterlimit:10;" d="M287.7,86.9l-23.8,1.3l21.4-82.4l30.6-1.6l27.9,79.8l-24.1,1.3
		l-5.5-17.9l-22.6,1.2L287.7,86.9z M301.1,21.9c0,0-5.5,29.7-5.5,30l13.4-0.7C309,51,301.1,21.9,301.1,21.9z"/>
</g>
<g>
	<g style="opacity:0.5;">
		<polygon style="fill:#231F20;" points="445.4,70.8 433.7,71.2 426.8,61.7 423.5,73 412.4,76.7 422.1,83.3 422.1,95 431.4,87.8 
			442.6,91.4 438.6,80.4 		"/>
	</g>
	<g>
		<polygon style="fill:#FFFFFF;" points="442.6,68.3 430.8,68.7 423.9,59.3 420.6,70.5 409.5,74.2 419.2,80.8 419.2,92.5 
			428.5,85.3 439.7,88.9 435.7,77.9 		"/>
		<polygon style="fill:#EC1C24;" points="441.7,68.8 430.6,69.2 424.1,60.3 421,70.9 410.5,74.3 419.6,80.6 419.7,91.6 428.4,84.8 
			439,88.2 435.2,77.8 		"/>
		<polygon style="fill:#FFFFFF;" points="438.7,70.4 429.9,70.7 424.7,63.6 422.2,72.1 413.9,74.8 421.1,79.8 421.2,88.5 
			428.1,83.2 436.5,85.8 433.5,77.6 		"/>
		<radialGradient id="SVGID_1_" cx="426.3571" cy="76.1597" r="10.82" gradientUnits="userSpaceOnUse">
			<stop  offset="3.846150e-02" style="stop-color:#EC2225"/>
			<stop  offset="0.1753" style="stop-color:#F1561C"/>
			<stop  offset="0.3192" style="stop-color:#F58513"/>
			<stop  offset="0.4632" style="stop-color:#F9AC0C"/>
			<stop  offset="0.6047" style="stop-color:#FBCA07"/>
			<stop  offset="0.7429" style="stop-color:#FDE003"/>
			<stop  offset="0.8764" style="stop-color:#FFED01"/>
			<stop  offset="1" style="stop-color:#FFF100"/>
		</radialGradient>
		<polygon style="fill:url(#SVGID_1_);" points="422.8,72.7 425,65.3 429.5,71.5 437.1,71.2 432.7,77.5 435.3,84.7 428,82.3 
			421.9,87 421.9,79.4 415.6,75.1 		"/>
	</g>
</g>
</svg>
