<?xml version="1.0" encoding="utf-8"?>
<!-- Generator: Adobe Illustrator 21.1.0, SVG Export Plug-In . SVG Version: 6.00 Build 0)  -->
<svg version="1.1" xmlns="http://www.w3.org/2000/svg" xmlns:xlink="http://www.w3.org/1999/xlink" x="0px" y="0px"
	 viewBox="0 0 1025.4 1184" style="enable-background:new 0 0 1025.4 1184;" xml:space="preserve">
<style type="text/css">
	.st0{fill:#198BCA;}
	.st1{fill:#0B79B7;}
	.st2{fill:#0D6394;}
	.st3{fill:#0D4972;}
	.st4{fill:none;}
	.st5{fill:#139DD9;}
	.st6{fill:#9CD6EF;}
	.st7{fill:#26B2E3;}
	.st8{fill:#66C6EB;}
	.st9{fill:#2AA9E1;}
	.st10{fill:#55C0A5;}
	.st11{font-family:'Wallpoet';}
	.st12{font-size:550px;}
</style>
<g id="Background_1_">
</g>
<g id="Logo">
	<g>
		<polygon class="st0" points="0,296 0,592 194.5,408.3 		"/>
		<polygon class="st1" points="194.5,408.3 0,592 194.5,592 		"/>
		<polygon class="st2" points="0,592 194.5,775.7 194.5,592 		"/>
		<polygon class="st3" points="0,888 194.5,775.7 0,592 		"/>
		<polygon class="st4" points="256.3,148 256.3,148 256.3,148 		"/>
		<polygon class="st5" points="0,296 194.5,408.3 256.3,148 		"/>
		<polygon class="st6" points="256.3,148 512.7,224.6 512.7,0 		"/>
		<polygon class="st4" points="774.6,151.2 774.6,151.2 774.6,151.2 		"/>
		<polygon class="st3" points="512.7,0 512.7,224.6 774.6,151.2 		"/>
		<polygon class="st0" points="774.6,151.2 830.9,408.3 1025.4,296 		"/>
		<polygon class="st5" points="830.9,408.3 1025.4,592 1025.4,296 		"/>
		<polygon class="st6" points="1025.4,888 1025.4,592 830.9,775.7 		"/>
		<polygon class="st7" points="194.5,408.3 353.6,316.5 256.3,148 		"/>
		<polygon class="st8" points="256.3,148 353.6,316.5 512.7,224.6 		"/>
		<polygon class="st4" points="774.6,1032.8 774.6,1032.8 774.6,1032.8 		"/>
		<polygon class="st2" points="512.7,1184 774.6,1032.8 512.7,959.4 		"/>
		<polygon class="st9" points="1025.4,888 830.9,775.7 774.6,1032.8 		"/>
		<polygon class="st0" points="671.8,867.5 774.6,1032.8 830.9,775.7 		"/>
		<polygon class="st3" points="512.7,959.4 774.6,1032.8 774.6,1032.8 671.8,867.5 		"/>
		<polygon class="st4" points="256.3,1036 256.3,1036 256.3,1036 		"/>
		<polygon class="st1" points="512.7,959.4 256.3,1036 512.7,1184 		"/>
		<polygon class="st8" points="0,888 256.3,1036 194.5,775.7 		"/>
		<polygon class="st5" points="194.5,775.7 256.3,1036 353.6,867.5 		"/>
		<polygon class="st0" points="353.6,867.5 256.3,1036 512.7,959.4 		"/>
		<polygon class="st7" points="830.9,408.3 830.9,592 1025.4,592 		"/>
		<polygon class="st8" points="1025.4,592 830.9,592 830.9,775.7 		"/>
		<polygon class="st2" points="774.6,151.2 512.7,224.6 671.8,316.5 774.6,151.2 		"/>
		<polygon class="st1" points="774.6,151.2 671.8,316.5 830.9,408.3 		"/>
	</g>
	<text transform="matrix(1.5577 0 0 1 200.0677 770.6851)" class="st10 st11 st12">W</text>
</g>
</svg>
